<?xml version="1.0" encoding="iso-8859-1"?>
<!-- Uploaded to: SVG Repo, www.svgrepo.com, Generator: SVG Repo Mixer Tools -->
<svg height="800px" width="800px" version="1.1" id="Layer_1" xmlns="http://www.w3.org/2000/svg" xmlns:xlink="http://www.w3.org/1999/xlink" 
	 viewBox="0 0 512 512" xml:space="preserve">
<path style="fill:#9EACBA;" d="M372.87,66.783h-66.783c-9.217,0-16.696-7.473-16.696-16.696V16.696
	C289.391,7.473,296.87,0,306.087,0h66.783c9.217,0,16.696,7.473,16.696,16.696v33.391C389.565,59.31,382.087,66.783,372.87,66.783z"
	/>
<path style="fill:#576573;" d="M406.261,495.304H105.739c-9.217,0-16.696-7.473-16.696-16.696V66.783
	c0-9.223,7.479-16.696,16.696-16.696h300.522c9.217,0,16.696,7.473,16.696,16.696v411.826
	C422.957,487.831,415.478,495.304,406.261,495.304z"/>
<path style="fill:#485566;" d="M406.261,50.087H256v445.217h150.261c9.217,0,16.696-7.473,16.696-16.696V66.783
	C422.957,57.56,415.478,50.087,406.261,50.087z"/>
<path style="fill:#CFDBE6;" d="M256,361.739c-39.891,0-72.348-32.456-72.348-72.348c0-14.358,4.206-28.245,12.163-40.152
	l46.305-69.299c6.195-9.272,21.565-9.272,27.76,0l46.305,69.294c7.956,11.913,12.162,25.799,12.162,40.158
	C328.348,329.283,295.891,361.739,256,361.739z"/>
<g>
	<path style="fill:#B8C9D9;" d="M328.348,289.391c0-14.358-4.206-28.245-12.163-40.157L269.88,179.94
		c-3.098-4.636-8.489-6.954-13.881-6.954v188.753C295.891,361.739,328.348,329.283,328.348,289.391z"/>
	<path style="fill:#B8C9D9;" d="M256,328.348c-21.478,0-38.957-17.478-38.957-38.957c0-7.733,2.261-15.201,6.532-21.603L256,219.266
		l32.424,48.522c4.272,6.397,6.532,13.87,6.532,21.603C294.957,310.87,277.478,328.348,256,328.348z"/>
</g>
<path style="fill:#9EACBA;" d="M294.957,289.391c0-7.733-2.261-15.206-6.532-21.603L256,219.266v109.082
	C277.478,328.348,294.957,310.87,294.957,289.391z"/>
<path style="fill:#FFD15D;" d="M439.652,512H72.348c-9.217,0-16.696-7.473-16.696-16.696s7.479-16.696,16.696-16.696h367.304
	c9.217,0,16.696,7.473,16.696,16.696S448.869,512,439.652,512z"/>
<path style="fill:#F9B54C;" d="M439.652,478.609H256V512h183.652c9.217,0,16.696-7.473,16.696-16.696
	S448.869,478.609,439.652,478.609z"/>
<path style="fill:#FFD15D;" d="M439.652,445.217H72.348c-9.217,0-16.696-7.473-16.696-16.696s7.479-16.696,16.696-16.696h367.304
	c9.217,0,16.696,7.473,16.696,16.696S448.869,445.217,439.652,445.217z"/>
<path style="fill:#F9B54C;" d="M439.652,411.826H256v33.391h183.652c9.217,0,16.696-7.473,16.696-16.696
	S448.869,411.826,439.652,411.826z"/>
<path style="fill:#FFD15D;" d="M439.652,133.565H72.348c-9.217,0-16.696-7.473-16.696-16.696s7.479-16.696,16.696-16.696h367.304
	c9.217,0,16.696,7.473,16.696,16.696S448.869,133.565,439.652,133.565z"/>
<path style="fill:#F9B54C;" d="M439.652,100.174H256v33.391h183.652c9.217,0,16.696-7.473,16.696-16.696
	S448.869,100.174,439.652,100.174z"/>
<path style="fill:#FFD15D;" d="M439.652,66.783H72.348c-9.217,0-16.696-7.473-16.696-16.696s7.479-16.696,16.696-16.696h367.304
	c9.217,0,16.696,7.473,16.696,16.696S448.869,66.783,439.652,66.783z"/>
<path style="fill:#F9B54C;" d="M439.652,33.391H256v33.391h183.652c9.217,0,16.696-7.473,16.696-16.696
	S448.869,33.391,439.652,33.391z"/>
</svg>