<svg xmlns="http://www.w3.org/2000/svg" xmlns:xlink="http://www.w3.org/1999/xlink" width="400" zoomAndPan="magnify" viewBox="0 0 300 74.999997" height="100" preserveAspectRatio="xMidYMid meet" version="1.0"><defs><g/></defs><path stroke-linecap="butt" transform="matrix(0.75, 0, 0, 0.75, 7.500005, 15.749998)" fill="none" stroke-linejoin="miter" d="M 35.677079 30.708339 L 12.755202 30.708339 C 12.755202 32.927089 13.473952 34.572923 14.906244 35.645839 C 16.348952 36.708339 17.916661 37.239589 19.598953 37.239589 C 21.364578 37.239589 22.755203 37.005214 23.781245 36.531256 C 24.802078 36.062506 25.979162 35.125006 27.302078 33.718756 L 35.182287 37.677089 C 31.89062 43.171882 26.427078 45.916673 18.786453 45.916673 C 14.026036 45.916673 9.937494 44.286465 6.526035 41.031256 C 3.119785 37.760423 1.411451 33.828131 1.411451 29.23438 C 1.411451 24.635422 3.119785 20.687505 6.526035 17.401046 C 9.937494 14.109379 14.026036 12.463546 18.786453 12.463546 C 23.802078 12.463546 27.874995 13.916671 31.01562 16.812504 C 34.166662 19.708338 35.739579 23.848963 35.739579 29.223964 C 35.739579 29.963547 35.718746 30.458339 35.677079 30.708339 Z M 13.057286 24.661463 L 25.072912 24.661463 C 24.822912 23.020838 24.177078 21.755213 23.135411 20.875005 C 22.088536 19.989588 20.744786 19.552088 19.104161 19.552088 C 17.296869 19.552088 15.859369 20.026046 14.786452 20.979171 C 13.723952 21.92188 13.145827 23.151047 13.057286 24.661463 Z M 54.588539 21.401046 C 52.531247 21.401046 50.760414 22.161463 49.276039 23.687505 C 47.80208 25.197922 47.067705 27.026047 47.067705 29.161464 C 47.067705 31.338547 47.80208 33.187506 49.276039 34.713548 C 50.760414 36.234381 52.531247 37.000006 54.588539 37.000006 C 55.567706 37.000006 56.499997 36.875006 57.385414 36.619798 C 58.265623 36.369798 58.911456 36.125006 59.322914 35.885423 L 59.880206 35.510423 L 63.583331 43.088548 C 63.291665 43.30209 62.890623 43.562507 62.374998 43.869798 C 61.864581 44.171882 60.692706 44.588548 58.859373 45.119798 C 57.031247 45.651048 55.072914 45.916673 52.979164 45.916673 C 48.343747 45.916673 44.265621 44.286465 40.749996 41.031256 C 37.239579 37.760423 35.484371 33.848964 35.484371 29.29688 C 35.484371 24.692713 37.239579 20.739588 40.749996 17.427088 C 44.265621 14.119796 48.343747 12.463546 52.979164 12.463546 C 55.072914 12.463546 57.005206 12.713546 58.765623 13.218754 C 60.541664 13.708338 61.796873 14.197921 62.52604 14.692713 L 63.583331 15.427088 L 59.880206 22.89063 C 58.526039 21.895838 56.760414 21.401046 54.588539 21.401046 Z M 67.916665 41.23959 C 64.406248 38.119798 62.65104 34.119798 62.65104 29.23438 C 62.65104 24.343755 64.479165 20.32813 68.130207 17.187504 C 71.786457 14.041671 76.312499 12.463546 81.692708 12.463546 C 86.989583 12.463546 91.453125 14.052088 95.083334 17.218754 C 98.723959 20.375005 100.541668 24.385422 100.541668 29.23438 C 100.541668 34.078131 98.765626 38.072923 95.218751 41.20834 C 91.666667 44.348965 87.161458 45.916673 81.692708 45.916673 C 76.031249 45.916673 71.437499 44.359382 67.916665 41.23959 Z M 76.354166 23.864588 C 74.942707 25.260422 74.234374 27.052089 74.234374 29.23438 C 74.234374 31.411464 74.911457 33.187506 76.265624 34.562506 C 77.630207 35.937506 79.416666 36.619798 81.635416 36.619798 C 83.770833 36.619798 85.526041 35.927089 86.901042 34.531256 C 88.270833 33.125006 88.958333 31.359381 88.958333 29.223964 C 88.958333 27.04688 88.255208 25.260422 86.838542 23.864588 C 85.427083 22.473963 83.692708 21.776046 81.635416 21.776046 C 79.541666 21.776046 77.781249 22.473963 76.354166 23.864588 Z M 76.354166 23.864588 " stroke="#804d00" stroke-width="4.621395" stroke-opacity="1" stroke-miterlimit="4"/><path stroke-linecap="butt" transform="matrix(0.75, 0, 0, 0.75, 7.500005, 15.749998)" fill="none" stroke-linejoin="miter" d="M 148.85938 17.338546 C 151.817714 20.57813 153.29688 24.536463 153.29688 29.223964 C 153.29688 33.906256 151.817714 37.859381 148.85938 41.088548 C 145.911463 44.307298 142.156254 45.916673 137.593754 45.916673 C 133.401045 45.916673 129.953128 44.416673 127.244795 41.421881 L 127.125003 41.421881 L 127.125003 45.000007 L 116.338544 45.000007 L 116.338544 -7.989581 L 127.244795 -7.989581 L 127.244795 16.406254 C 129.953128 13.781254 133.401045 12.463546 137.593754 12.463546 C 142.156254 12.463546 145.911463 14.088546 148.85938 17.338546 Z M 139.687504 34.562506 C 141.036463 33.187506 141.713546 31.411464 141.713546 29.23438 C 141.713546 27.052089 141.010421 25.260422 139.593754 23.864588 C 138.182296 22.473963 136.427087 21.776046 134.328129 21.776046 C 132.276045 21.776046 130.536462 22.473963 129.109378 23.864588 C 127.69792 25.260422 126.989587 27.04688 126.989587 29.223964 C 126.989587 31.359381 127.677087 33.125006 129.052087 34.531256 C 130.432295 35.927089 132.192712 36.619798 134.328129 36.619798 C 136.546879 36.619798 138.333337 35.937506 139.687504 34.562506 Z M 165.625006 13.395837 L 165.625006 28.42188 C 165.625006 31.541672 166.098965 33.765631 167.041673 35.088548 C 167.984382 36.401048 169.58334 37.057298 171.838549 37.057298 C 174.104174 37.057298 175.70834 36.401048 176.651049 35.088548 C 177.593757 33.765631 178.067716 31.541672 178.067716 28.42188 L 178.067716 13.395837 L 188.973967 13.395837 L 188.973967 31.072922 C 188.973967 36.338548 187.604175 40.125006 184.864591 42.442715 C 182.135424 44.760423 177.796882 45.916673 171.838549 45.916673 C 165.890631 45.916673 161.552089 44.760423 158.812506 42.442715 C 156.088547 40.125006 154.723964 36.338548 154.723964 31.072922 L 154.723964 13.395837 Z M 194.822925 41.088548 C 191.864592 37.859381 190.385425 33.906256 190.385425 29.223964 C 190.385425 24.536463 191.864592 20.57813 194.822925 17.338546 C 197.781259 14.088546 201.541676 12.463546 206.104176 12.463546 C 210.286468 12.463546 213.734385 13.781254 216.453135 16.406254 L 216.453135 -7.989581 L 227.359386 -7.989581 L 227.359386 45.000007 L 216.572927 45.000007 L 216.572927 41.421881 L 216.453135 41.421881 C 213.734385 44.416673 210.286468 45.916673 206.104176 45.916673 C 201.541676 45.916673 197.781259 44.307298 194.822925 41.088548 Z M 204.088551 23.864588 C 202.677093 25.260422 201.968759 27.052089 201.968759 29.23438 C 201.968759 31.411464 202.645843 33.187506 204.000009 34.562506 C 205.364593 35.937506 207.15626 36.619798 209.369802 36.619798 C 211.505218 36.619798 213.260427 35.927089 214.635427 34.531256 C 216.010427 33.125006 216.692719 31.359381 216.692719 29.223964 C 216.692719 27.04688 215.989594 25.260422 214.572927 23.864588 C 213.161469 22.473963 211.427093 21.776046 209.369802 21.776046 C 207.276051 21.776046 205.515635 22.473963 204.088551 23.864588 Z M 233.822929 41.088548 C 230.864595 37.859381 229.385428 33.906256 229.385428 29.223964 C 229.385428 24.536463 230.864595 20.57813 233.822929 17.338546 C 236.781262 14.088546 240.541679 12.463546 245.10418 12.463546 C 249.286472 12.463546 252.734388 13.781254 255.453139 16.406254 L 255.453139 -7.989581 L 266.35939 -7.989581 L 266.35939 45.000007 L 255.57293 45.000007 L 255.57293 41.421881 L 255.453139 41.421881 C 252.734388 44.416673 249.286472 45.916673 245.10418 45.916673 C 240.541679 45.916673 236.781262 44.307298 233.822929 41.088548 Z M 243.088554 23.864588 C 241.677096 25.260422 240.968762 27.052089 240.968762 29.23438 C 240.968762 31.411464 241.645846 33.187506 243.000013 34.562506 C 244.364596 35.937506 246.151055 36.619798 248.369805 36.619798 C 250.505222 36.619798 252.26043 35.927089 253.630222 34.531256 C 255.005222 33.125006 255.692722 31.359381 255.692722 29.223964 C 255.692722 27.04688 254.984389 25.260422 253.57293 23.864588 C 252.156263 22.473963 250.421888 21.776046 248.369805 21.776046 C 246.270846 21.776046 244.510429 22.473963 243.088554 23.864588 Z M 294.630225 13.395837 L 307.208351 13.395837 L 282.375016 61.020841 L 269.79689 61.020841 L 280.703141 40.067715 L 265.73439 13.395837 L 278.312516 13.395837 L 287.109391 29.598964 Z M 294.630225 13.395837 " stroke="#804d00" stroke-width="4.621395" stroke-opacity="1" stroke-miterlimit="4"/><g fill="#ffbd59" fill-opacity="1"><g transform="translate(7.500005, 49.499995)"><g><path d="M 26.75 -10.71875 L 9.5625 -10.71875 C 9.5625 -9.050781 10.097656 -7.816406 11.171875 -7.015625 C 12.253906 -6.222656 13.425781 -5.828125 14.6875 -5.828125 C 16.007812 -5.828125 17.054688 -6.003906 17.828125 -6.359375 C 18.597656 -6.710938 19.476562 -7.410156 20.46875 -8.453125 L 26.375 -5.5 C 23.914062 -1.375 19.820312 0.6875 14.09375 0.6875 C 10.519531 0.6875 7.453125 -0.535156 4.890625 -2.984375 C 2.335938 -5.429688 1.0625 -8.378906 1.0625 -11.828125 C 1.0625 -15.273438 2.335938 -18.226562 4.890625 -20.6875 C 7.453125 -23.15625 10.519531 -24.390625 14.09375 -24.390625 C 17.851562 -24.390625 20.910156 -23.300781 23.265625 -21.125 C 25.617188 -18.957031 26.796875 -15.859375 26.796875 -11.828125 C 26.796875 -11.273438 26.78125 -10.90625 26.75 -10.71875 Z M 9.796875 -15.25 L 18.796875 -15.25 C 18.617188 -16.476562 18.132812 -17.421875 17.34375 -18.078125 C 16.5625 -18.742188 15.554688 -19.078125 14.328125 -19.078125 C 12.972656 -19.078125 11.894531 -18.722656 11.09375 -18.015625 C 10.289062 -17.304688 9.859375 -16.382812 9.796875 -15.25 Z M 9.796875 -15.25 "/></g></g></g><g fill="#ffbd59" fill-opacity="1"><g transform="translate(33.0521, 49.499995)"><g><path d="M 15.390625 -17.703125 C 13.847656 -17.703125 12.519531 -17.128906 11.40625 -15.984375 C 10.300781 -14.847656 9.75 -13.476562 9.75 -11.875 C 9.75 -10.238281 10.300781 -8.847656 11.40625 -7.703125 C 12.519531 -6.566406 13.847656 -6 15.390625 -6 C 16.128906 -6 16.828125 -6.09375 17.484375 -6.28125 C 18.148438 -6.46875 18.632812 -6.65625 18.9375 -6.84375 L 19.359375 -7.109375 L 22.125 -1.4375 C 21.914062 -1.28125 21.617188 -1.085938 21.234375 -0.859375 C 20.847656 -0.628906 19.96875 -0.316406 18.59375 0.078125 C 17.226562 0.484375 15.757812 0.6875 14.1875 0.6875 C 10.707031 0.6875 7.648438 -0.535156 5.015625 -2.984375 C 2.378906 -5.429688 1.0625 -8.363281 1.0625 -11.78125 C 1.0625 -15.226562 2.378906 -18.191406 5.015625 -20.671875 C 7.648438 -23.148438 10.707031 -24.390625 14.1875 -24.390625 C 15.757812 -24.390625 17.207031 -24.203125 18.53125 -23.828125 C 19.851562 -23.460938 20.789062 -23.097656 21.34375 -22.734375 L 22.125 -22.171875 L 19.359375 -16.59375 C 18.335938 -17.332031 17.015625 -17.703125 15.390625 -17.703125 Z M 15.390625 -17.703125 "/></g></g></g><g fill="#ffbd59" fill-opacity="1"><g transform="translate(53.429016, 49.499995)"><g><path d="M 5.015625 -2.8125 C 2.378906 -5.15625 1.0625 -8.160156 1.0625 -11.828125 C 1.0625 -15.492188 2.429688 -18.503906 5.171875 -20.859375 C 7.910156 -23.210938 11.300781 -24.390625 15.34375 -24.390625 C 19.3125 -24.390625 22.660156 -23.203125 25.390625 -20.828125 C 28.117188 -18.460938 29.484375 -15.460938 29.484375 -11.828125 C 29.484375 -8.191406 28.148438 -5.195312 25.484375 -2.84375 C 22.816406 -0.488281 19.4375 0.6875 15.34375 0.6875 C 11.09375 0.6875 7.648438 -0.476562 5.015625 -2.8125 Z M 11.34375 -15.84375 C 10.28125 -14.800781 9.75 -13.460938 9.75 -11.828125 C 9.75 -10.191406 10.253906 -8.859375 11.265625 -7.828125 C 12.285156 -6.796875 13.628906 -6.28125 15.296875 -6.28125 C 16.898438 -6.28125 18.21875 -6.800781 19.25 -7.84375 C 20.28125 -8.894531 20.796875 -10.222656 20.796875 -11.828125 C 20.796875 -13.460938 20.265625 -14.800781 19.203125 -15.84375 C 18.140625 -16.894531 16.835938 -17.421875 15.296875 -17.421875 C 13.722656 -17.421875 12.40625 -16.894531 11.34375 -15.84375 Z M 11.34375 -15.84375 "/></g></g></g><g fill="#000000" fill-opacity="1"><g transform="translate(81.667968, 49.499995)"><g/></g></g><g fill="#c1ff72" fill-opacity="1"><g transform="translate(91.980467, 49.499995)"><g><path d="M 27.171875 -20.734375 C 29.390625 -18.304688 30.5 -15.335938 30.5 -11.828125 C 30.5 -8.316406 29.390625 -5.351562 27.171875 -2.9375 C 24.953125 -0.519531 22.132812 0.6875 18.71875 0.6875 C 15.570312 0.6875 12.984375 -0.4375 10.953125 -2.6875 L 10.859375 -2.6875 L 10.859375 0 L 2.765625 0 L 2.765625 -39.734375 L 10.953125 -39.734375 L 10.953125 -21.4375 C 12.984375 -23.40625 15.570312 -24.390625 18.71875 -24.390625 C 22.132812 -24.390625 24.953125 -23.171875 27.171875 -20.734375 Z M 20.28125 -7.828125 C 21.300781 -8.859375 21.8125 -10.191406 21.8125 -11.828125 C 21.8125 -13.460938 21.28125 -14.800781 20.21875 -15.84375 C 19.15625 -16.894531 17.835938 -17.421875 16.265625 -17.421875 C 14.722656 -17.421875 13.421875 -16.894531 12.359375 -15.84375 C 11.296875 -14.800781 10.765625 -13.460938 10.765625 -11.828125 C 10.765625 -10.222656 11.28125 -8.894531 12.3125 -7.84375 C 13.34375 -6.800781 14.660156 -6.28125 16.265625 -6.28125 C 17.929688 -6.28125 19.269531 -6.796875 20.28125 -7.828125 Z M 20.28125 -7.828125 "/></g></g></g><g fill="#c1ff72" fill-opacity="1"><g transform="translate(121.229117, 49.499995)"><g><path d="M 10.484375 -23.703125 L 10.484375 -12.421875 C 10.484375 -10.085938 10.835938 -8.425781 11.546875 -7.4375 C 12.253906 -6.445312 13.457031 -5.953125 15.15625 -5.953125 C 16.851562 -5.953125 18.054688 -6.445312 18.765625 -7.4375 C 19.472656 -8.425781 19.828125 -10.085938 19.828125 -12.421875 L 19.828125 -23.703125 L 28 -23.703125 L 28 -10.4375 C 28 -6.5 26.972656 -3.660156 24.921875 -1.921875 C 22.878906 -0.179688 19.625 0.6875 15.15625 0.6875 C 10.6875 0.6875 7.425781 -0.179688 5.375 -1.921875 C 3.332031 -3.660156 2.3125 -6.5 2.3125 -10.4375 L 2.3125 -23.703125 Z M 10.484375 -23.703125 "/></g></g></g><g fill="#c1ff72" fill-opacity="1"><g transform="translate(149.230178, 49.499995)"><g><path d="M 4.390625 -2.9375 C 2.171875 -5.351562 1.0625 -8.316406 1.0625 -11.828125 C 1.0625 -15.335938 2.171875 -18.304688 4.390625 -20.734375 C 6.609375 -23.171875 9.425781 -24.390625 12.84375 -24.390625 C 15.988281 -24.390625 18.578125 -23.40625 20.609375 -21.4375 L 20.609375 -39.734375 L 28.78125 -39.734375 L 28.78125 0 L 20.703125 0 L 20.703125 -2.6875 L 20.609375 -2.6875 C 18.578125 -0.4375 15.988281 0.6875 12.84375 0.6875 C 9.425781 0.6875 6.609375 -0.519531 4.390625 -2.9375 Z M 11.34375 -15.84375 C 10.28125 -14.800781 9.75 -13.460938 9.75 -11.828125 C 9.75 -10.191406 10.253906 -8.859375 11.265625 -7.828125 C 12.285156 -6.796875 13.628906 -6.28125 15.296875 -6.28125 C 16.898438 -6.28125 18.21875 -6.800781 19.25 -7.84375 C 20.28125 -8.894531 20.796875 -10.222656 20.796875 -11.828125 C 20.796875 -13.460938 20.265625 -14.800781 19.203125 -15.84375 C 18.140625 -16.894531 16.835938 -17.421875 15.296875 -17.421875 C 13.722656 -17.421875 12.40625 -16.894531 11.34375 -15.84375 Z M 11.34375 -15.84375 "/></g></g></g><g fill="#c1ff72" fill-opacity="1"><g transform="translate(178.478831, 49.499995)"><g><path d="M 4.390625 -2.9375 C 2.171875 -5.351562 1.0625 -8.316406 1.0625 -11.828125 C 1.0625 -15.335938 2.171875 -18.304688 4.390625 -20.734375 C 6.609375 -23.171875 9.425781 -24.390625 12.84375 -24.390625 C 15.988281 -24.390625 18.578125 -23.40625 20.609375 -21.4375 L 20.609375 -39.734375 L 28.78125 -39.734375 L 28.78125 0 L 20.703125 0 L 20.703125 -2.6875 L 20.609375 -2.6875 C 18.578125 -0.4375 15.988281 0.6875 12.84375 0.6875 C 9.425781 0.6875 6.609375 -0.519531 4.390625 -2.9375 Z M 11.34375 -15.84375 C 10.28125 -14.800781 9.75 -13.460938 9.75 -11.828125 C 9.75 -10.191406 10.253906 -8.859375 11.265625 -7.828125 C 12.285156 -6.796875 13.628906 -6.28125 15.296875 -6.28125 C 16.898438 -6.28125 18.21875 -6.800781 19.25 -7.84375 C 20.28125 -8.894531 20.796875 -10.222656 20.796875 -11.828125 C 20.796875 -13.460938 20.265625 -14.800781 19.203125 -15.84375 C 18.140625 -16.894531 16.835938 -17.421875 15.296875 -17.421875 C 13.722656 -17.421875 12.40625 -16.894531 11.34375 -15.84375 Z M 11.34375 -15.84375 "/></g></g></g><g fill="#c1ff72" fill-opacity="1"><g transform="translate(207.727478, 49.499995)"><g><path d="M 20.75 -23.703125 L 30.171875 -23.703125 L 11.546875 12.015625 L 2.125 12.015625 L 10.296875 -3.703125 L -0.921875 -23.703125 L 8.5 -23.703125 L 15.109375 -11.546875 Z M 20.75 -23.703125 "/></g></g></g></svg>