<svg xmlns="http://www.w3.org/2000/svg" xmlns:xlink="http://www.w3.org/1999/xlink" width="400" zoomAndPan="magnify" viewBox="0 0 300 74.999997" height="100" preserveAspectRatio="xMidYMid meet" version="1.0"><defs><g/></defs><path stroke-linecap="butt" transform="matrix(0.990793, 0, 0, 0.990793, -39.692298, 5.108553)" fill="none" stroke-linejoin="miter" d="M 77.334018 34.036863 C 77.334018 25.895498 71.171813 21.846499 65.06086 21.846499 C 58.863172 21.846499 52.740391 25.895498 52.740391 34.036863 C 52.740391 42.178229 58.863172 46.266654 65.017492 46.266654 C 69.94568 46.266654 74.822614 43.668513 76.624359 38.48406 L 69.109859 38.48406 C 68.100566 39.576146 66.649708 40.104448 65.104228 40.104448 C 62.998906 40.06108 60.838389 38.965051 60.002568 36.765108 L 77.065925 36.765108 C 77.247282 35.881977 77.334018 35.002788 77.334018 34.036863 Z M 69.764322 31.351987 L 60.270662 31.351987 C 60.968493 29.02194 62.856975 27.870715 64.930756 27.870715 C 67.174067 27.870715 69.109859 28.978572 69.764322 31.351987 Z M 104.87273 35.881977 L 98.008751 35.881977 C 97.216298 38.523485 95.055781 39.749618 92.950459 39.749618 C 90.30895 39.749618 87.667442 37.817769 87.667442 34.080232 C 87.667442 30.342694 90.30895 28.406902 92.950459 28.406902 C 95.055781 28.406902 97.216298 29.676403 98.008751 32.317912 L 104.87273 32.317912 C 103.950173 25.327771 98.450316 21.889867 92.950459 21.889867 C 86.914415 21.889867 80.890198 26.025602 80.890198 34.080232 C 80.890198 42.134861 86.914415 46.266654 92.950459 46.266654 C 98.450316 46.266654 103.950173 42.832693 104.87273 35.881977 Z M 132.88849 34.1236 C 132.88849 25.639232 126.552813 21.404933 120.217135 21.404933 C 113.838089 21.404933 107.498468 25.639232 107.498468 34.1236 C 107.498468 42.572484 113.881457 46.794955 120.217135 46.794955 C 126.552813 46.794955 132.88849 42.572484 132.88849 34.1236 Z M 114.461012 34.1236 C 114.461012 30.074601 117.315418 28.052073 120.217135 28.052073 C 123.383002 28.052073 125.941717 30.074601 125.941717 34.1236 C 125.941717 38.12923 123.071541 40.104448 120.217135 40.104448 C 117.315418 40.104448 114.461012 38.12923 114.461012 34.1236 Z M 114.461012 34.1236 " stroke="#000000" stroke-width="0.934991" stroke-opacity="1" stroke-miterlimit="4"/><g fill="#9bd23e" fill-opacity="1"><g transform="translate(11.999218, 50.68502)"><g><path d="M 24.929688 -11.855469 C 24.929688 -19.917969 18.828125 -23.929688 12.769531 -23.929688 C 6.625 -23.929688 0.566406 -19.917969 0.566406 -11.855469 C 0.566406 -3.792969 6.625 0.261719 12.726562 0.261719 C 17.609375 0.261719 22.445312 -2.308594 24.234375 -7.453125 L 16.78125 -7.453125 C 15.777344 -6.363281 14.339844 -5.839844 12.8125 -5.839844 C 10.722656 -5.882812 8.585938 -6.972656 7.757812 -9.152344 L 24.667969 -9.152344 C 24.84375 -10.023438 24.929688 -10.894531 24.929688 -11.855469 Z M 17.433594 -14.515625 L 8.019531 -14.515625 C 8.71875 -16.824219 10.589844 -17.957031 12.640625 -17.957031 C 14.863281 -17.957031 16.78125 -16.867188 17.433594 -14.515625 Z M 17.433594 -14.515625 "/></g></g></g><g fill="#9bd23e" fill-opacity="1"><g transform="translate(39.890058, 50.68502)"><g><path d="M 24.320312 -10.023438 L 17.519531 -10.023438 C 16.738281 -7.410156 14.601562 -6.1875 12.507812 -6.1875 C 9.894531 -6.1875 7.277344 -8.105469 7.277344 -11.8125 C 7.277344 -15.515625 9.894531 -17.433594 12.507812 -17.433594 C 14.601562 -17.433594 16.738281 -16.171875 17.519531 -13.554688 L 24.320312 -13.554688 C 23.40625 -20.484375 17.957031 -23.882812 12.507812 -23.882812 C 6.539062 -23.882812 0.566406 -19.789062 0.566406 -11.8125 C 0.566406 -3.835938 6.539062 0.261719 12.507812 0.261719 C 17.957031 0.261719 23.40625 -3.136719 24.320312 -10.023438 Z M 24.320312 -10.023438 "/></g></g></g><g fill="#9bd23e" fill-opacity="1"><g transform="translate(66.647827, 50.68502)"><g><path d="M 25.324219 -11.769531 C 25.324219 -20.179688 19.046875 -24.363281 12.769531 -24.363281 C 6.449219 -24.363281 0.175781 -20.179688 0.175781 -11.769531 C 0.175781 -3.398438 6.496094 0.785156 12.769531 0.785156 C 19.046875 0.785156 25.324219 -3.398438 25.324219 -11.769531 Z M 7.0625 -11.769531 C 7.0625 -15.777344 9.894531 -17.78125 12.769531 -17.78125 C 15.910156 -17.78125 18.4375 -15.777344 18.4375 -11.769531 C 18.4375 -7.800781 15.601562 -5.839844 12.769531 -5.839844 C 9.894531 -5.839844 7.0625 -7.800781 7.0625 -11.769531 Z M 7.0625 -11.769531 "/></g></g></g><path stroke-linecap="butt" transform="matrix(1.058141, 0, 0, 1.058141, 97.069474, 2.420974)" fill="none" stroke-linejoin="miter" d="M 11.998541 16.45438 L 0.480702 16.45438 L 0.480702 50.000084 L 11.330359 50.000084 L 11.56293 47.504553 C 13.438271 49.708447 16.074084 50.479994 18.709897 50.479994 C 26.724393 50.479994 30.814702 44.093501 30.814702 37.230788 C 30.814702 29.648211 26.05621 23.649337 18.137696 23.649337 C 16.122075 23.649337 13.578552 24.129247 11.998541 25.432387 Z M 11.998541 37.042516 C 11.998541 34.546984 13.82589 33.30291 15.642165 33.30291 C 17.421523 33.30291 19.189807 34.498993 19.189807 36.902235 C 19.189807 39.490057 17.373532 40.789505 15.546183 40.789505 C 13.777899 40.789505 11.998541 39.538048 11.998541 37.042516 Z M 50.151381 50.000084 L 61.18931 50.000084 L 61.18931 24.036957 L 49.671471 24.036957 L 49.671471 38.050327 C 49.671471 39.969967 48.231741 40.885487 46.78832 40.885487 C 45.34859 40.885487 44.200498 39.925667 44.200498 38.094626 L 44.200498 24.036957 L 32.682659 24.036957 L 32.682659 38.142617 C 32.682659 45.101311 35.410763 50.291722 43.144696 50.479994 C 45.688219 50.527985 48.324032 49.708447 50.151381 47.412262 Z M 82.770491 50.000084 L 93.620147 50.000084 L 93.620147 16.45438 L 82.102308 16.45438 L 82.102308 25.432387 C 80.522297 24.129247 77.978774 23.649337 75.963153 23.649337 C 68.088938 23.649337 63.286147 29.60022 63.286147 37.086815 C 63.286147 44.049201 67.317391 50.479994 75.390952 50.479994 C 78.026765 50.479994 80.662578 49.708447 82.537919 47.504553 Z M 82.102308 37.042516 C 82.102308 39.538048 80.334025 40.789505 78.550975 40.789505 C 76.723625 40.789505 74.907351 39.490057 74.907351 36.902235 C 74.907351 34.498993 76.679326 33.30291 78.458684 33.30291 C 80.274959 33.30291 82.102308 34.546984 82.102308 37.042516 Z M 115.208711 50.000084 L 126.058367 50.000084 L 126.058367 16.45438 L 114.540529 16.45438 L 114.540529 25.432387 C 112.956826 24.129247 110.416995 23.649337 108.401373 23.649337 C 100.527158 23.649337 95.724367 29.60022 95.724367 37.086815 C 95.724367 44.049201 99.755611 50.479994 107.825481 50.479994 C 110.461294 50.479994 113.100799 49.708447 114.972448 47.504553 Z M 114.540529 37.042516 C 114.540529 39.538048 112.772245 40.789505 110.989195 40.789505 C 109.161846 40.789505 107.345571 39.490057 107.345571 36.902235 C 107.345571 34.498993 109.113855 33.30291 110.896905 33.30291 C 112.713179 33.30291 114.540529 34.546984 114.540529 37.042516 Z M 146.838468 24.036957 L 144.187888 30.704013 L 142.511895 38.002336 L 140.883893 30.704013 L 138.24808 24.036957 L 127.213843 24.036957 L 127.213843 25.23304 L 136.80835 49.379893 L 133.257016 58.446499 L 133.257016 59.314029 L 144.435226 59.314029 L 157.872705 25.23304 L 157.872705 24.036957 Z M 146.838468 24.036957 " stroke="#000000" stroke-width="1.019989" stroke-opacity="1" stroke-miterlimit="4"/><g fill="#ffb733" fill-opacity="1"><g transform="translate(97.069474, 55.328036)"><g><path d="M 12.695312 -35.496094 L 0.507812 -35.496094 L 0.507812 0 L 11.984375 0 L 12.238281 -2.640625 C 14.21875 -0.304688 17.011719 0.507812 19.804688 0.507812 C 28.285156 0.507812 32.601562 -6.246094 32.601562 -13.507812 C 32.601562 -21.53125 27.574219 -27.878906 19.195312 -27.878906 C 17.0625 -27.878906 14.371094 -27.371094 12.695312 -26 Z M 12.695312 -13.710938 C 12.695312 -16.351562 14.625 -17.671875 16.554688 -17.671875 C 18.433594 -17.671875 20.3125 -16.402344 20.3125 -13.863281 C 20.3125 -11.121094 18.382812 -9.75 16.453125 -9.75 C 14.574219 -9.75 12.695312 -11.070312 12.695312 -13.710938 Z M 12.695312 -13.710938 "/></g></g></g><g fill="#ffb733" fill-opacity="1"><g transform="translate(131.342087, 55.328036)"><g><path d="M 18.789062 0 L 30.46875 0 L 30.46875 -27.472656 L 18.28125 -27.472656 L 18.28125 -12.644531 C 18.28125 -10.613281 16.757812 -9.648438 15.234375 -9.648438 C 13.710938 -9.648438 12.492188 -10.664062 12.492188 -12.59375 L 12.492188 -27.472656 L 0.304688 -27.472656 L 0.304688 -12.542969 C 0.304688 -5.179688 3.199219 0.304688 11.375 0.507812 C 14.066406 0.558594 16.859375 -0.304688 18.789062 -2.742188 Z M 18.789062 0 "/></g></g></g><g fill="#ffb733" fill-opacity="1"><g transform="translate(164.345338, 55.328036)"><g><path d="M 20.3125 0 L 31.789062 0 L 31.789062 -35.496094 L 19.601562 -35.496094 L 19.601562 -26 C 17.925781 -27.371094 15.234375 -27.878906 13.101562 -27.878906 C 4.773438 -27.878906 -0.304688 -21.582031 -0.304688 -13.660156 C -0.304688 -6.296875 3.960938 0.507812 12.492188 0.507812 C 15.285156 0.507812 18.078125 -0.304688 20.058594 -2.640625 Z M 19.601562 -13.710938 C 19.601562 -11.070312 17.722656 -9.75 15.84375 -9.75 C 13.914062 -9.75 11.984375 -11.121094 11.984375 -13.863281 C 11.984375 -16.402344 13.863281 -17.671875 15.742188 -17.671875 C 17.671875 -17.671875 19.601562 -16.351562 19.601562 -13.710938 Z M 19.601562 -13.710938 "/></g></g></g><g fill="#ffb733" fill-opacity="1"><g transform="translate(198.668714, 55.328036)"><g><path d="M 20.3125 0 L 31.789062 0 L 31.789062 -35.496094 L 19.601562 -35.496094 L 19.601562 -26 C 17.925781 -27.371094 15.234375 -27.878906 13.101562 -27.878906 C 4.773438 -27.878906 -0.304688 -21.582031 -0.304688 -13.660156 C -0.304688 -6.296875 3.960938 0.507812 12.492188 0.507812 C 15.285156 0.507812 18.078125 -0.304688 20.058594 -2.640625 Z M 19.601562 -13.710938 C 19.601562 -11.070312 17.722656 -9.75 15.84375 -9.75 C 13.914062 -9.75 11.984375 -11.121094 11.984375 -13.863281 C 11.984375 -16.402344 13.863281 -17.671875 15.742188 -17.671875 C 17.671875 -17.671875 19.601562 -16.351562 19.601562 -13.710938 Z M 19.601562 -13.710938 "/></g></g></g><g fill="#ffb733" fill-opacity="1"><g transform="translate(232.99209, 55.328036)"><g><path d="M 19.449219 -27.472656 L 16.65625 -20.414062 L 14.878906 -12.695312 L 13.152344 -20.414062 L 10.359375 -27.472656 L -1.320312 -27.472656 L -1.320312 -26.203125 L 8.835938 -0.660156 L 5.078125 8.9375 L 5.078125 9.851562 L 16.910156 9.851562 L 31.128906 -26.203125 L 31.128906 -27.472656 Z M 19.449219 -27.472656 "/></g></g></g></svg>