<svg xmlns="http://www.w3.org/2000/svg" xmlns:xlink="http://www.w3.org/1999/xlink" width="400" zoomAndPan="magnify" viewBox="0 0 300 149.999998" height="200" preserveAspectRatio="xMidYMid meet" version="1.0"><defs><g/></defs><path stroke-linecap="butt" transform="matrix(1.173088, 0, 0, 1.173088, -56.788669, 36.927184)" fill="none" stroke-linejoin="miter" d="M 77.336266 34.036899 C 77.336266 25.895327 71.169317 21.846186 65.058976 21.846186 C 58.862059 21.846186 52.741728 25.895327 52.741728 34.036899 C 52.741728 42.17514 58.862059 46.26757 65.015688 46.26757 C 69.947249 46.26757 74.822202 43.670259 76.627 38.482296 L 69.108118 38.482296 C 68.099162 39.577829 66.650662 40.103951 65.102265 40.103951 C 62.997777 40.060662 60.840011 38.96513 60.00088 36.764075 L 77.066545 36.764075 C 77.249689 35.881655 77.336266 35.002566 77.336266 34.036899 Z M 69.764105 31.349681 L 60.2706 31.349681 C 60.966547 29.02209 62.857922 27.86995 64.929111 27.86995 C 67.176784 27.86995 69.108118 28.978802 69.764105 31.349681 Z M 104.874423 35.881655 L 98.011528 35.881655 C 97.215685 38.525585 95.057919 39.750983 92.953431 39.750983 C 90.309502 39.750983 87.668902 37.816319 87.668902 34.080187 C 87.668902 30.340725 90.309502 28.409391 92.953431 28.409391 C 95.057919 28.409391 97.215685 29.674748 98.011528 32.318677 L 104.874423 32.318677 C 103.948714 25.325917 98.451073 21.889475 92.953431 21.889475 C 86.916348 21.889475 80.892584 26.025193 80.892584 34.080187 C 80.892584 42.135181 86.916348 46.26757 92.953431 46.26757 C 98.451073 46.26757 103.948714 42.831127 104.874423 35.881655 Z M 132.888753 34.123476 C 132.888753 25.638926 126.55198 21.406641 120.215207 21.406641 C 113.835146 21.406641 107.501703 25.638926 107.501703 34.123476 C 107.501703 42.574726 113.878434 46.793692 120.215207 46.793692 C 126.55198 46.793692 132.888753 42.574726 132.888753 34.123476 Z M 114.461164 34.123476 C 114.461164 30.074334 117.314877 28.053094 120.215207 28.053094 C 123.385259 28.053094 125.939281 30.074334 125.939281 34.123476 C 125.939281 38.129328 123.072249 40.103951 120.215207 40.103951 C 117.314877 40.103951 114.461164 38.129328 114.461164 34.123476 Z M 114.461164 34.123476 " stroke="#ffffff" stroke-width="4.454959" stroke-opacity="1" stroke-miterlimit="4"/><g fill="#9bd23e" fill-opacity="1"><g transform="translate(4.413543, 90.889242)"><g><path d="M 29.515625 -14.035156 C 29.515625 -23.582031 22.292969 -28.332031 15.121094 -28.332031 C 7.84375 -28.332031 0.671875 -23.582031 0.671875 -14.035156 C 0.671875 -4.488281 7.84375 0.308594 15.070312 0.308594 C 20.847656 0.308594 26.574219 -2.734375 28.691406 -8.824219 L 19.867188 -8.824219 C 18.679688 -7.535156 16.976562 -6.914062 15.171875 -6.914062 C 12.695312 -6.964844 10.167969 -8.257812 9.183594 -10.835938 L 29.207031 -10.835938 C 29.414062 -11.867188 29.515625 -12.902344 29.515625 -14.035156 Z M 20.640625 -17.183594 L 9.496094 -17.183594 C 10.320312 -19.917969 12.539062 -21.261719 14.964844 -21.261719 C 17.597656 -21.261719 19.867188 -19.972656 20.640625 -17.183594 Z M 20.640625 -17.183594 "/></g></g></g><g fill="#9bd23e" fill-opacity="1"><g transform="translate(37.436005, 90.889242)"><g><path d="M 28.796875 -11.867188 L 20.746094 -11.867188 C 19.816406 -8.773438 17.289062 -7.328125 14.808594 -7.328125 C 11.714844 -7.328125 8.617188 -9.597656 8.617188 -13.984375 C 8.617188 -18.371094 11.714844 -20.640625 14.808594 -20.640625 C 17.289062 -20.640625 19.816406 -19.144531 20.746094 -16.050781 L 28.796875 -16.050781 C 27.710938 -24.253906 21.261719 -28.277344 14.808594 -28.277344 C 7.742188 -28.277344 0.671875 -23.429688 0.671875 -13.984375 C 0.671875 -4.542969 7.742188 0.308594 14.808594 0.308594 C 21.261719 0.308594 27.710938 -3.714844 28.796875 -11.867188 Z M 28.796875 -11.867188 "/></g></g></g><g fill="#9bd23e" fill-opacity="1"><g transform="translate(69.116923, 90.889242)"><g><path d="M 29.980469 -13.933594 C 29.980469 -23.894531 22.550781 -28.847656 15.121094 -28.847656 C 7.636719 -28.847656 0.207031 -23.894531 0.207031 -13.933594 C 0.207031 -4.023438 7.6875 0.929688 15.121094 0.929688 C 22.550781 0.929688 29.980469 -4.023438 29.980469 -13.933594 Z M 8.359375 -13.933594 C 8.359375 -18.679688 11.714844 -21.054688 15.121094 -21.054688 C 18.835938 -21.054688 21.828125 -18.679688 21.828125 -13.933594 C 21.828125 -9.238281 18.472656 -6.914062 15.121094 -6.914062 C 11.714844 -6.914062 8.359375 -9.238281 8.359375 -13.933594 Z M 8.359375 -13.933594 "/></g></g></g><path stroke-linecap="butt" transform="matrix(1.17164, 0, 0, 1.17164, 109.143183, 35.035184)" fill="none" stroke-linejoin="miter" d="M 11.996887 16.456606 L 0.481247 16.456606 L 0.481247 49.999994 L 11.330087 49.999994 L 11.563467 47.502827 C 13.437176 49.706602 16.074371 50.48009 18.711566 50.48009 C 26.726505 50.48009 30.813991 44.095477 30.813991 37.230769 C 30.813991 29.64925 26.056371 23.651381 18.138118 23.651381 C 16.121047 23.651381 13.580538 24.131477 11.996887 25.431738 Z M 11.996887 37.040731 C 11.996887 34.546898 13.82392 33.303315 15.640951 33.303315 C 17.421307 33.303315 19.191662 34.500222 19.191662 36.900703 C 19.191662 39.491222 17.374631 40.791482 15.547599 40.791482 C 13.777244 40.791482 11.996887 39.537898 11.996887 37.040731 Z M 50.151198 49.999994 L 61.186742 49.999994 L 61.186742 24.038125 L 49.671102 24.038125 L 49.671102 38.050933 C 49.671102 39.971318 48.230813 40.884834 46.787191 40.884834 C 45.346902 40.884834 44.200006 39.924642 44.200006 38.097609 L 44.200006 24.038125 L 32.681031 24.038125 L 32.681031 38.144285 C 32.681031 45.102346 35.411578 50.293386 43.146461 50.48009 C 45.68697 50.526766 48.324165 49.706602 50.151198 47.409475 Z M 82.771067 49.999994 L 93.619907 49.999994 L 93.619907 16.456606 L 82.104267 16.456606 L 82.104267 25.431738 C 80.520616 24.131477 77.980107 23.651381 75.963036 23.651381 C 68.091459 23.651381 63.287163 29.602574 63.287163 37.087407 C 63.287163 44.048801 67.317971 50.48009 75.389588 50.48009 C 78.026783 50.48009 80.660644 49.706602 82.537687 47.502827 Z M 82.104267 37.040731 C 82.104267 39.537898 80.333912 40.791482 78.553555 40.791482 C 76.726523 40.791482 74.909492 39.491222 74.909492 36.900703 C 74.909492 34.500222 76.676513 33.303315 78.460203 33.303315 C 80.2739 33.303315 82.104267 34.546898 82.104267 37.040731 Z M 115.207566 49.999994 L 126.056406 49.999994 L 126.056406 16.456606 L 114.540765 16.456606 L 114.540765 25.431738 C 112.957115 24.131477 110.416606 23.651381 108.399535 23.651381 C 100.527958 23.651381 95.723662 29.602574 95.723662 37.087407 C 95.723662 44.048801 99.75447 50.48009 107.826087 50.48009 C 110.463282 50.48009 113.100477 49.706602 114.974186 47.502827 Z M 114.540765 37.040731 C 114.540765 39.537898 112.770411 40.791482 110.990054 40.791482 C 109.163021 40.791482 107.345991 39.491222 107.345991 36.900703 C 107.345991 34.500222 109.116345 33.303315 110.896702 33.303315 C 112.713733 33.303315 114.540765 34.546898 114.540765 37.040731 Z M 146.837236 24.038125 L 144.190039 30.702794 L 142.513036 38.000923 L 140.886044 30.702794 L 138.248849 24.038125 L 127.213304 24.038125 L 127.213304 25.231698 L 136.80856 49.379869 L 133.257849 58.448353 L 133.257849 59.315193 L 144.436755 59.315193 L 157.87278 25.231698 L 157.87278 24.038125 Z M 146.837236 24.038125 " stroke="#ffffff" stroke-width="6.059937" stroke-opacity="1" stroke-miterlimit="4"/><g fill="#ffb733" fill-opacity="1"><g transform="translate(109.143183, 93.617195)"><g><path d="M 14.058594 -39.300781 L 0.5625 -39.300781 L 0.5625 0 L 13.269531 0 L 13.550781 -2.921875 C 15.742188 -0.335938 18.835938 0.5625 21.929688 0.5625 C 31.320312 0.5625 36.097656 -6.914062 36.097656 -14.957031 C 36.097656 -23.839844 30.53125 -30.867188 21.253906 -30.867188 C 18.890625 -30.867188 15.914062 -30.304688 14.058594 -28.789062 Z M 14.058594 -15.179688 C 14.058594 -18.105469 16.195312 -19.566406 18.328125 -19.566406 C 20.410156 -19.566406 22.492188 -18.160156 22.492188 -15.351562 C 22.492188 -12.3125 20.355469 -10.796875 18.21875 -10.796875 C 16.136719 -10.796875 14.058594 -12.257812 14.058594 -15.179688 Z M 14.058594 -15.179688 "/></g></g></g><g fill="#ffb733" fill-opacity="1"><g transform="translate(147.091965, 93.617195)"><g><path d="M 20.804688 0 L 33.734375 0 L 33.734375 -30.417969 L 20.242188 -30.417969 L 20.242188 -14 C 20.242188 -11.75 18.554688 -10.683594 16.867188 -10.683594 C 15.179688 -10.683594 13.832031 -11.808594 13.832031 -13.945312 L 13.832031 -30.417969 L 0.335938 -30.417969 L 0.335938 -13.886719 C 0.335938 -5.734375 3.542969 0.335938 12.59375 0.5625 C 15.574219 0.617188 18.667969 -0.335938 20.804688 -3.035156 Z M 20.804688 0 "/></g></g></g><g fill="#ffb733" fill-opacity="1"><g transform="translate(183.63523, 93.617195)"><g><path d="M 22.492188 0 L 35.199219 0 L 35.199219 -39.300781 L 21.703125 -39.300781 L 21.703125 -28.789062 C 19.847656 -30.304688 16.867188 -30.867188 14.507812 -30.867188 C 5.285156 -30.867188 -0.335938 -23.894531 -0.335938 -15.125 C -0.335938 -6.972656 4.386719 0.5625 13.832031 0.5625 C 16.925781 0.5625 20.015625 -0.335938 22.210938 -2.921875 Z M 21.703125 -15.179688 C 21.703125 -12.257812 19.625 -10.796875 17.542969 -10.796875 C 15.40625 -10.796875 13.269531 -12.3125 13.269531 -15.351562 C 13.269531 -18.160156 15.351562 -19.566406 17.429688 -19.566406 C 19.566406 -19.566406 21.703125 -18.105469 21.703125 -15.179688 Z M 21.703125 -15.179688 "/></g></g></g><g fill="#ffb733" fill-opacity="1"><g transform="translate(221.640221, 93.617195)"><g><path d="M 22.492188 0 L 35.199219 0 L 35.199219 -39.300781 L 21.703125 -39.300781 L 21.703125 -28.789062 C 19.847656 -30.304688 16.867188 -30.867188 14.507812 -30.867188 C 5.285156 -30.867188 -0.335938 -23.894531 -0.335938 -15.125 C -0.335938 -6.972656 4.386719 0.5625 13.832031 0.5625 C 16.925781 0.5625 20.015625 -0.335938 22.210938 -2.921875 Z M 21.703125 -15.179688 C 21.703125 -12.257812 19.625 -10.796875 17.542969 -10.796875 C 15.40625 -10.796875 13.269531 -12.3125 13.269531 -15.351562 C 13.269531 -18.160156 15.351562 -19.566406 17.429688 -19.566406 C 19.566406 -19.566406 21.703125 -18.105469 21.703125 -15.179688 Z M 21.703125 -15.179688 "/></g></g></g><g fill="#ffb733" fill-opacity="1"><g transform="translate(259.645211, 93.617195)"><g><path d="M 21.535156 -30.417969 L 18.441406 -22.601562 L 16.472656 -14.058594 L 14.5625 -22.601562 L 11.46875 -30.417969 L -1.460938 -30.417969 L -1.460938 -29.011719 L 9.785156 -0.730469 L 5.621094 9.894531 L 5.621094 10.90625 L 18.722656 10.90625 L 34.46875 -29.011719 L 34.46875 -30.417969 Z M 21.535156 -30.417969 "/></g></g></g></svg>