<?xml version="1.0" encoding="iso-8859-1"?>
<!-- Uploaded to: SVG Repo, www.svgrepo.com, Generator: SVG Repo Mixer Tools -->
<svg version="1.1" id="Layer_1" xmlns="http://www.w3.org/2000/svg" xmlns:xlink="http://www.w3.org/1999/xlink" 
	 viewBox="0 0 512 512" xml:space="preserve">
<path style="fill:#5CE6E6;" d="M59.745,160.027c-1.114,0-2.239-0.115-3.369-0.348c-9.032-1.853-14.854-10.674-13-19.706
	c8.527-41.577,29.006-79.516,59.217-109.728c6.521-6.521,17.087-6.521,23.609,0c6.521,6.516,6.521,17.092,0,23.609
	c-25.577,25.577-42.908,57.673-50.119,92.826C74.461,154.582,67.505,160.027,59.745,160.027z"/>
<path style="fill:#51CCCC;" d="M452.255,160.027c-7.767,0-14.718-5.446-16.337-13.348c-7.211-35.147-24.538-67.245-50.119-92.826
	c-6.521-6.516-6.521-17.092,0-23.609c6.521-6.521,17.087-6.521,23.609,0c30.217,30.217,50.696,68.157,59.217,109.728
	c1.853,9.032-3.967,17.859-13,19.706C454.495,159.913,453.364,160.027,452.255,160.027z"/>
<path style="fill:#5CE6E6;" d="M127.272,164.723c-1.478,0-2.979-0.196-4.468-0.609c-8.885-2.462-14.092-11.664-11.636-20.549
	c6.945-25.066,20.44-48.066,39.027-66.511c6.549-6.5,17.125-6.457,23.609,0.087c6.5,6.544,6.457,17.114-0.087,23.609
	c-14.473,14.364-24.973,32.25-30.364,51.729C141.304,159.875,134.587,164.723,127.272,164.723z"/>
<path style="fill:#51CCCC;" d="M384.728,164.723c-7.315,0-14.032-4.847-16.081-12.245c-5.392-19.473-15.891-37.358-30.358-51.729
	c-6.544-6.495-6.581-17.065-0.087-23.609c6.489-6.544,17.065-6.587,23.609-0.087c18.587,18.451,32.081,41.451,39.022,66.511
	c2.457,8.885-2.75,18.087-11.636,20.549C387.706,164.527,386.206,164.723,384.728,164.723z"/>
<rect x="239.304" y="217.043" style="fill:#576573;" width="33.391" height="144.696"/>
<rect x="255.755" y="217.043" style="fill:#485566;" width="16.935" height="144.696"/>
<path style="fill:#B8C9D9;" d="M289.391,445.217h-66.783c-9.223,0-16.696-7.473-16.696-16.696V395.13
	c0-27.619,22.468-50.087,50.087-50.087s50.087,22.468,50.087,50.087v33.391C306.087,437.744,298.614,445.217,289.391,445.217z"/>
<path style="fill:#9EACBA;" d="M256,345.043c-0.082,0-0.158,0.023-0.239,0.025v100.149h33.631c9.223,0,16.696-7.473,16.696-16.696
	V395.13C306.087,367.511,283.619,345.043,256,345.043z"/>
<path style="fill:#FFD15D;" d="M339.478,512H172.522v-50.087c0-27.619,22.468-50.087,50.087-50.087h66.783
	c27.619,0,50.087,22.468,50.087,50.087V512z"/>
<path style="fill:#F9B54C;" d="M289.391,411.826h-33.631V512h83.718v-50.087C339.478,434.294,317.01,411.826,289.391,411.826z"/>
<path style="fill:#576573;" d="M389.565,512h-267.13c-9.223,0-16.696-7.473-16.696-16.696s7.473-16.696,16.696-16.696h267.13
	c9.223,0,16.696,7.473,16.696,16.696S398.788,512,389.565,512z"/>
<path style="fill:#485566;" d="M389.565,478.609H255.761V512h133.805c9.223,0,16.696-7.473,16.696-16.696
	S398.788,478.609,389.565,478.609z"/>
<path style="fill:#B8C9D9;" d="M371.587,300.511c-8.495,0-17.092-2.157-24.957-6.696L256,241.489l-90.625,52.321
	c-23.907,13.826-54.614,5.582-68.419-18.326c-6.691-11.587-8.472-25.087-5.005-38.01c3.462-12.924,11.75-23.722,23.337-30.413
	l90.625-52.326V50.087C205.913,22.468,228.381,0,256,0s50.087,22.468,50.087,50.087v104.647l90.636,52.326
	c23.907,13.81,32.136,44.505,18.332,68.419C405.782,291.527,388.907,300.511,371.587,300.511z"/>
<path style="fill:#9EACBA;" d="M396.723,207.059l-90.636-52.325V50.087C306.087,22.468,283.619,0,256,0
	c-0.082,0-0.158,0.023-0.239,0.024v241.603l0.239-0.138l90.631,52.326c7.864,4.538,16.462,6.696,24.957,6.696
	c17.321,0,34.196-8.983,43.468-25.032C428.859,251.566,420.63,220.87,396.723,207.059z"/>
<path style="fill:#D7EBFF;" d="M256,217.043c-18.413,0-33.391-14.978-33.391-33.391s14.978-33.391,33.391-33.391
	s33.391,14.978,33.391,33.391S274.413,217.043,256,217.043z"/>
<path style="fill:#BDDEFF;" d="M256,150.261c-0.082,0-0.158,0.023-0.239,0.024v66.734c0.081,0.001,0.157,0.024,0.239,0.024
	c18.413,0,33.391-14.978,33.391-33.391S274.413,150.261,256,150.261z"/>
</svg>