<?xml version="1.0" encoding="iso-8859-1"?>
<!-- Uploaded to: SVG Repo, www.svgrepo.com, Generator: SVG Repo Mixer Tools -->
<svg height="800px" width="800px" version="1.1" id="Layer_1" xmlns="http://www.w3.org/2000/svg" xmlns:xlink="http://www.w3.org/1999/xlink" 
	 viewBox="0 0 511.999 511.999" xml:space="preserve">
<polygon style="fill:#5374FC;" points="371.409,282.913 371.409,504.376 254.388,465.162 140.59,504.376 140.59,282.913 "/>
<polygon style="fill:#5697FC;" points="195.721,303.244 195.721,485.354 254.318,465.162 310.584,484.017 310.584,303.244 "/>
<path style="opacity:0.34;fill:#373BAE;enable-background:new    ;" d="M140.59,332.046c30.214,28.241,70.788,45.537,115.409,45.537
	c44.62,0,85.196-17.296,115.409-45.537v-65.194H140.59V332.046z"/>
<circle style="fill:#CCA400;" cx="256.003" cy="176.68" r="169.056"/>
<path style="opacity:0.09;fill:#663C1D;enable-background:new    ;" d="M368.497,49.146c12.625,23.679,19.791,50.711,19.791,79.419
	c0,93.366-75.688,169.055-169.054,169.055c-42.468,0-81.276-15.663-110.97-41.523c28.436,53.331,84.606,89.636,149.264,89.636
	c93.366,0,169.055-75.689,169.055-169.055C426.582,125.78,404.086,80.139,368.497,49.146z"/>
<circle style="fill:#EEBF00;" cx="256.003" cy="176.68" r="130.467"/>
<polygon style="fill:#FFDA44;" points="256,86.075 276.507,149.191 342.871,149.191 289.182,188.198 309.689,251.314 256,212.306 
	202.31,251.314 222.818,188.198 169.129,149.191 235.492,149.191 "/>
<path style="opacity:0.18;fill:#FFFFFF;enable-background:new    ;" d="M196.032,292.165L371.485,116.71
	c-11.973-23.513-30.863-42.914-53.991-55.518l-176.98,176.981C153.119,261.301,172.519,280.191,196.032,292.165z"/>
<path d="M256,314.773c76.145,0,138.094-61.949,138.094-138.094S332.146,38.584,256,38.584s-138.094,61.949-138.094,138.094
	S179.854,314.773,256,314.773z M256,53.833c67.737,0,122.845,55.108,122.845,122.845S323.737,299.523,256,299.523
	c-67.738,0-122.847-55.108-122.847-122.845S188.262,53.833,256,53.833z"/>
<path d="M432.678,176.678C432.678,79.258,353.42,0,256,0C158.579,0,79.322,79.258,79.322,176.678
	c0,49.632,20.58,94.542,53.645,126.667v201.03c0,2.464,1.191,4.777,3.198,6.207c1.309,0.933,2.86,1.417,4.427,1.417
	c0.834,0,1.673-0.137,2.482-0.416l111.348-38.369l114.563,38.391c2.326,0.779,4.885,0.391,6.876-1.04
	c1.99-1.432,3.171-3.736,3.171-6.189v-201.03C412.097,271.22,432.678,226.311,432.678,176.678z M94.57,176.678
	C94.57,87.666,166.988,15.249,256,15.249s161.429,72.417,161.429,161.429S345.013,338.107,256,338.107S94.57,265.691,94.57,176.678z
	 M148.215,316.567c12.178,9.404,25.608,17.258,40,23.259c-0.031,0.275-0.048,0.553-0.048,0.837v139.254l-39.952,13.767
	L148.215,316.567L148.215,316.567z M251.905,457.953l-48.489,16.709V345.367c16.617,5.191,34.28,7.99,52.585,7.99
	c16.281,0,32.05-2.224,47.032-6.367v126.431l-46.22-15.488C255.218,457.398,253.493,457.405,251.905,457.953z M363.785,493.779
	L318.28,478.53V342.011c16.479-6.228,31.788-14.85,45.505-25.444V493.779z"/>
<path d="M172.001,157.01l44.663,32.449l-17.059,52.504c-1.021,3.141,0.098,6.582,2.77,8.524c2.673,1.941,6.291,1.941,8.962,0
	l44.663-32.449l44.663,32.449c1.336,0.971,2.908,1.456,4.481,1.456s3.145-0.486,4.481-1.456c2.673-1.942,3.791-5.383,2.77-8.525
	l-17.06-52.504l44.663-32.449c2.673-1.942,3.791-5.383,2.77-8.525c-1.021-3.141-3.948-5.268-7.251-5.268h-55.206l-17.061-52.503
	c-1.021-3.141-3.948-5.269-7.251-5.269c-3.303,0-6.231,2.127-7.251,5.268l-17.06,52.504h-55.206c-3.303,0-6.231,2.127-7.251,5.268
	C168.212,151.627,169.33,155.069,172.001,157.01z M237.229,158.466c3.303,0,6.231-2.127,7.251-5.268l11.521-35.455l11.52,35.455
	c1.021,3.141,3.948,5.269,7.251,5.269h37.28l-30.16,21.913c-2.673,1.942-3.791,5.383-2.77,8.524l11.521,35.455l-30.161-21.913
	c-2.673-1.941-6.291-1.941-8.962,0l-30.161,21.913l11.52-35.456c1.021-3.141-0.098-6.582-2.77-8.524l-30.16-21.913L237.229,158.466
	L237.229,158.466z"/>
</svg>