<?xml version="1.0" encoding="iso-8859-1"?>
<!-- Uploaded to: SVG Repo, www.svgrepo.com, Generator: SVG Repo Mixer Tools -->
<svg height="800px" width="800px" version="1.1" id="Layer_1" xmlns="http://www.w3.org/2000/svg" xmlns:xlink="http://www.w3.org/1999/xlink" 
	 viewBox="0 0 512 512" xml:space="preserve">
<g>
	<path style="fill:#F0C419;" d="M386.169,512V242.983c0,0,2.169-61.466,26.034-69.424c0,0,3.619-18.805-78.102-43.39l-26.034-26.034
		h0.026l-52.068,112.814l-52.068-112.814l-26.034,26.034c-81.72,24.585-78.102,43.39-78.102,43.39
		c23.864,7.958,26.034,69.424,26.034,69.424V512H386.169z"/>
	<path style="fill:#F29C1F;" d="M256,512V216.897l-52.042-112.761l-26.034,26.034c-81.72,24.585-78.102,43.39-78.102,43.39
		c23.864,7.958,26.034,69.424,26.034,69.424V512H256z"/>
	<path style="fill:#F0C419;" d="M125.854,242.983c0,0-2.161-60.572-25.574-69.198l-0.486-0.226L4.336,295.051l60.746,43.39
		l60.772-31.831V242.983z"/>
	<path style="fill:#F29C1F;" d="M386.146,242.983c0,0,2.161-60.572,25.574-69.198l0.486-0.226l95.458,121.492l-60.746,43.39
		l-60.772-31.831V242.983z"/>
	<polygon style="fill:#F0C419;" points="239.749,181.685 203.935,199.597 177.918,130.173 203.952,104.139 	"/>
	<polygon style="fill:#F29C1F;" points="272.276,181.685 308.089,199.597 334.106,130.173 308.072,104.139 	"/>
	<path style="fill:#A5A5A4;" d="M256,86.78c-4.799,0-8.678-3.879-8.678-8.678v-9.78c-14.961-3.853-26.034-17.469-26.034-33.61
		C221.288,15.568,236.856,0,256,0s34.712,15.568,34.712,34.712c0,4.799-3.879,8.678-8.678,8.678c-4.799,0-8.678-3.879-8.678-8.678
		c0-9.572-7.784-17.356-17.356-17.356s-17.356,7.784-17.356,17.356S246.428,52.068,256,52.068c4.799,0,8.678,3.879,8.678,8.678
		v17.356C264.678,82.901,260.799,86.78,256,86.78"/>
	<g>
		<polygon style="fill:#D25627;" points="231.992,164.881 256.022,216.949 280.042,164.881 		"/>
		<polygon style="fill:#D25627;" points="231.992,164.881 231.992,164.881 280.042,164.881 280.051,164.881 306.206,108.223 
			255.996,78.102 205.828,108.206 		"/>
	</g>
	<polygon style="fill:#F29C1F;" points="290.712,321.087 342.78,321.087 342.78,269.02 290.712,269.02 	"/>
	<path style="fill:#D25627;" d="M221.288,295.051c0,14.379-11.655,26.034-26.034,26.034c-14.379,0-26.034-11.655-26.034-26.034
		c0-14.379,11.655-26.034,26.034-26.034C209.634,269.017,221.288,280.671,221.288,295.051"/>
</g>
</svg>