<!DOCTYPE svg PUBLIC "-//W3C//DTD SVG 1.1//EN" "http://www.w3.org/Graphics/SVG/1.1/DTD/svg11.dtd">
<!-- Uploaded to: SVG Repo, www.svgrepo.com, Transformed by: SVG Repo Mixer Tools -->
<svg version="1.1" id="Layer_1" xmlns="http://www.w3.org/2000/svg" xmlns:xlink="http://www.w3.org/1999/xlink" viewBox="0 0 512.001 512.001" xml:space="preserve" width="800px" height="800px" fill="#000000" transform="rotate(0)matrix(-1, 0, 0, 1, 0, 0)">
<g id="SVGRepo_bgCarrier" stroke-width="0"/>
<g id="SVGRepo_tracerCarrier" stroke-linecap="round" stroke-linejoin="round"/>
<g id="SVGRepo_iconCarrier"> <rect x="128.164" y="383.923" style="fill:#B2C4D0;" width="31.981" height="55.966"/> <path style="fill:#8FAEBF;" d="M160.136,399.914v-15.99h-31.981v15.99l0,0c8.835,0,15.99,7.156,15.99,15.99v23.985h15.99V399.914 L160.136,399.914z"/> <rect x="156.219" y="447.884" style="fill:#B2C4D0;" width="247.849" height="31.981"/> <rect x="160.144" y="463.875" style="fill:#8FAEBF;" width="239.854" height="15.99"/> <g> <circle style="fill:#576D7E;" cx="144.154" cy="463.875" r="31.981"/> <circle style="fill:#576D7E;" cx="415.988" cy="463.875" r="31.981"/> </g> <g> <circle style="fill:#35495C;" cx="415.988" cy="463.875" r="15.99"/> <circle style="fill:#35495C;" cx="144.154" cy="463.875" r="15.99"/> </g> <path style="fill:#576D7E;" d="M88.18,144.069c-8.323,0.032-15.279-6.332-15.99-14.631l-6.716-81.31H17.103 c-8.115,0.32-15.263-5.309-16.87-13.272c-1.495-8.707,4.341-16.974,13.04-18.477c0.975-0.168,1.967-0.248,2.95-0.232h49.25 c16.678-0.056,30.605,12.72,31.981,29.342l6.716,80.911c0.959,8.779-5.381,16.67-14.159,17.629c-0.128,0.016-0.264,0.024-0.392,0.04 L88.18,144.069L88.18,144.069z"/> <path style="fill:#57cb7e;" d="M508.004,133.596c-2.886-3.334-7.028-5.333-11.433-5.517L88.82,112.089 c-4.525-0.184-8.907,1.559-12.073,4.797c-3.19,3.246-4.845,7.691-4.557,12.233l15.99,239.854c0.552,8.427,7.547,14.967,15.99,14.951 h367.776c8.219,0.048,15.127-6.14,15.99-14.311l23.985-223.864C512.362,141.327,510.946,136.922,508.004,133.596z"/> <g> <path style="fill:#697d8c;" d="M144.146,176.05L144.146,176.05c4.413,0,7.995,3.582,7.995,7.995v135.917 c0,4.413-3.582,7.995-7.995,7.995l0,0c-4.413,0-7.995-3.582-7.995-7.995V184.045C136.151,179.624,139.733,176.05,144.146,176.05z"/> <path style="fill:#697d8c;" d="M192.117,176.05L192.117,176.05c4.413,0,7.995,3.582,7.995,7.995v135.917 c0,4.413-3.582,7.995-7.995,7.995l0,0c-4.413,0-7.995-3.582-7.995-7.995V184.045C184.122,179.624,187.703,176.05,192.117,176.05z"/> <path style="fill:#697d8c;" d="M240.087,176.05L240.087,176.05c4.413,0,7.995,3.582,7.995,7.995v135.917 c0,4.413-3.582,7.995-7.995,7.995l0,0c-4.413,0-7.995-3.582-7.995-7.995V184.045C232.092,179.624,235.674,176.05,240.087,176.05z"/> <path style="fill:#697d8c;" d="M288.058,176.05L288.058,176.05c4.413,0,7.995,3.582,7.995,7.995v135.917 c0,4.413-3.582,7.995-7.995,7.995l0,0c-4.413,0-7.995-3.582-7.995-7.995V184.045C280.063,179.624,283.645,176.05,288.058,176.05z"/> <path style="fill:#697d8c;" d="M336.029,176.05L336.029,176.05c4.413,0,7.995,3.582,7.995,7.995v135.917 c0,4.413-3.582,7.995-7.995,7.995l0,0c-4.413,0-7.995-3.582-7.995-7.995V184.045C328.034,179.624,331.616,176.05,336.029,176.05z"/> <path style="fill:#697d8c;" d="M384,176.05L384,176.05c4.413,0,7.995,3.582,7.995,7.995v135.917c0,4.413-3.582,7.995-7.995,7.995 l0,0c-4.413,0-7.995-3.582-7.995-7.995V184.045C376.005,179.624,379.586,176.05,384,176.05z"/> <path style="fill:#697d8c;" d="M431.971,176.05L431.971,176.05c4.413,0,7.995,3.582,7.995,7.995v135.917 c0,4.413-3.582,7.995-7.995,7.995l0,0c-4.413,0-7.995-3.582-7.995-7.995V184.045C423.975,179.624,427.557,176.05,431.971,176.05z"/> </g> <path style="fill:#697d8c;" d="M510.323,144.069c-9.106,0-16.726,6.924-17.589,15.99l-20.787,199.878 c-0.64,6.556-2.718,7.995-7.995,7.995h-343.79c-8.835,0-15.99,7.156-15.99,15.99h367.776c8.219,0.048,15.127-6.14,15.99-14.311 l23.985-223.864L510.323,144.069L510.323,144.069z"/> <path style="fill:#35495C;" d="M0.234,32.138c0,8.835,7.156,15.99,15.99,15.99h47.971c0-8.835-7.156-15.99-15.99-15.99H0.234z"/> </g>
</svg>